<svg width="41" height="39" viewBox="0 0 41 39" fill="none" xmlns="http://www.w3.org/2000/svg">
<path d="M18.7895 0.92129C19.1887 -0.307125 20.9266 -0.307125 21.3257 0.921289L25.1466 12.6808C25.3251 13.2302 25.837 13.6021 26.4147 13.6021H38.7794C40.071 13.6021 40.6081 15.255 39.5631 16.0142L29.5598 23.282C29.0925 23.6215 28.897 24.2233 29.0755 24.7727L32.8964 36.5322C33.2955 37.7606 31.8895 38.7821 30.8446 38.0229L20.8413 30.7551C20.374 30.4156 19.7412 30.4156 19.2739 30.7551L9.27064 38.0229C8.22569 38.7821 6.81971 37.7606 7.21885 36.5322L11.0398 24.7727C11.2183 24.2233 11.0227 23.6215 10.5554 23.282L0.552126 16.0142C-0.492825 15.255 0.0442083 13.6021 1.33584 13.6021H13.7006C14.2782 13.6021 14.7901 13.2302 14.9686 12.6808L18.7895 0.92129Z" fill="#D9D9D9"/>
</svg>
